<svg width="18" height="17" viewBox="0 0 18 17" fill="none" xmlns="http://www.w3.org/2000/svg">
<path d="M17.5343 7.54215C17.7276 7.39781 17.871 7.19646 17.9444 6.96631C18.0177 6.73617 18.0174 6.48878 17.9434 6.25884C17.8694 6.02889 17.7255 5.82792 17.5318 5.6841C17.3381 5.54029 17.1043 5.46084 16.8633 5.45689L12.182 5.27964C12.159 5.27805 12.137 5.26982 12.1185 5.25595C12.1 5.24207 12.086 5.22315 12.078 5.20145L10.4604 0.822396C10.3791 0.599607 10.2315 0.40723 10.0375 0.271312C9.84352 0.135394 9.61256 0.0625 9.37588 0.0625C9.1392 0.0625 8.90823 0.135394 8.71426 0.271312C8.52028 0.40723 8.37266 0.599607 8.29139 0.822396L6.67895 5.21708C6.67098 5.23878 6.65692 5.25771 6.63846 5.27159C6.62001 5.28546 6.59794 5.29369 6.57493 5.29528L1.89367 5.47253C1.65264 5.47648 1.41888 5.55593 1.22518 5.69974C1.03148 5.84356 0.887539 6.04453 0.813549 6.27448C0.739559 6.50442 0.739227 6.75181 0.8126 6.98195C0.885972 7.21209 1.02937 7.41345 1.22269 7.55779L4.89487 10.4511C4.91325 10.4656 4.92699 10.4852 4.93438 10.5074C4.94178 10.5296 4.94251 10.5536 4.93648 10.5762L3.67254 15.0647C3.60705 15.2933 3.61339 15.5365 3.69072 15.7614C3.76804 15.9862 3.91259 16.1817 4.1047 16.3212C4.29681 16.4608 4.52716 16.5377 4.7644 16.5414C5.00164 16.5451 5.23426 16.4755 5.43062 16.342L9.31086 13.7354C9.32998 13.7222 9.35265 13.7151 9.37588 13.7151C9.39911 13.7151 9.42178 13.7222 9.4409 13.7354L13.3211 16.342C13.5148 16.48 13.7466 16.5542 13.9843 16.5542C14.222 16.5542 14.4538 16.48 14.6475 16.342C14.8397 16.2037 14.9843 16.0092 15.0617 15.7851C15.139 15.5611 15.1451 15.3185 15.0792 15.0908L13.8049 10.5866C13.7981 10.564 13.7985 10.5399 13.8059 10.5175C13.8134 10.4951 13.8275 10.4755 13.8465 10.4615L17.5343 7.54215Z" fill="#ECC63E"/>
</svg>
