<svg width="18" height="17" viewBox="0 0 18 17" fill="none" xmlns="http://www.w3.org/2000/svg">
<path d="M17.2351 7.14151L17.235 7.14135L17.2239 7.15012L13.5399 10.0665C13.4427 10.1413 13.3702 10.2434 13.3315 10.3597C13.2922 10.4779 13.2897 10.6053 13.3244 10.7249L14.5981 15.2269L14.5981 15.2269L14.5989 15.2298C14.6361 15.3584 14.6327 15.4955 14.589 15.622C14.5455 15.7482 14.4642 15.8576 14.3564 15.9354C14.2476 16.0127 14.1175 16.0542 13.9843 16.0542C13.8508 16.0542 13.7204 16.0125 13.6113 15.9348L13.6115 15.9346L13.6 15.9269L9.72139 13.3215C9.61959 13.2522 9.49922 13.2151 9.37588 13.2151C9.25253 13.2151 9.13217 13.2522 9.03036 13.3215L5.1518 15.9269L5.14949 15.9285C5.03819 16.0041 4.90646 16.0435 4.77221 16.0414C4.63796 16.0393 4.5075 15.9959 4.39858 15.9167C4.28965 15.8376 4.20751 15.7266 4.16353 15.5987C4.11956 15.4709 4.11594 15.3325 4.15321 15.2025L4.15383 15.2003L5.41777 10.7117L5.41782 10.7117L5.41968 10.7048C5.45078 10.5879 5.44701 10.4644 5.40883 10.3496C5.37065 10.2348 5.29968 10.1336 5.20451 10.0585L5.20431 10.0583L1.53213 7.16505L1.53223 7.16492L1.52183 7.15715C1.4122 7.0753 1.33071 6.96097 1.28898 6.83008C1.24724 6.69917 1.24743 6.55842 1.28952 6.42763C1.3316 6.29685 1.4134 6.18274 1.52324 6.10119C1.63306 6.01965 1.76546 5.9747 1.90185 5.97246L1.90185 5.97258L1.91258 5.97217L6.59384 5.79492L6.60165 5.79463L6.60944 5.79409C6.72889 5.78582 6.8433 5.74312 6.9389 5.67126C7.03448 5.59941 7.10715 5.50151 7.1483 5.38947L7.14836 5.38931L8.76079 0.994623L8.76111 0.993755C8.80733 0.86706 8.8912 0.757856 9.00118 0.680794C9.11114 0.603743 9.24195 0.5625 9.37588 0.5625C9.50981 0.5625 9.64061 0.603743 9.75058 0.680794C9.86056 0.757856 9.94443 0.86706 9.99065 0.993756L9.99135 0.995655L11.6087 5.37383C11.6088 5.37409 11.6089 5.37435 11.6089 5.3746C11.609 5.37464 11.609 5.37467 11.609 5.3747C11.6502 5.48638 11.7227 5.58396 11.8181 5.65562C11.9137 5.72748 12.0281 5.77018 12.1475 5.77845L12.1553 5.77899L12.1631 5.77928L16.8444 5.95653L16.8444 5.95665L16.8551 5.95682C16.9915 5.95906 17.1239 6.00401 17.2337 6.08555C17.3436 6.16711 17.4254 6.28121 17.4674 6.41199C17.5095 6.54278 17.5097 6.68353 17.468 6.81444C17.4263 6.94533 17.3448 7.05966 17.2351 7.14151Z" stroke="#ECC63E"/>
</svg>
