<svg width="22" height="13" viewBox="0 0 22 13" fill="none" xmlns="http://www.w3.org/2000/svg">
<path d="M12.4367 0.790923C12.6911 0.543291 13.0298 0.40639 13.3811 0.409107C13.7324 0.411824 14.069 0.553948 14.3198 0.805488C14.5705 1.05703 14.7159 1.39831 14.7252 1.75732C14.7345 2.11633 14.607 2.46499 14.3695 2.72972L7.16193 11.9436C7.03799 12.0801 6.88841 12.1896 6.72212 12.2656C6.55584 12.3416 6.37626 12.3825 6.19414 12.386C6.01202 12.3894 5.83108 12.3553 5.66216 12.2856C5.49324 12.216 5.33979 12.1122 5.21099 11.9806L0.431207 7.09478C0.298098 6.968 0.191335 6.81511 0.117286 6.64524C0.0432372 6.47536 0.00342047 6.29198 0.000210847 6.10604C-0.00299877 5.92009 0.0304645 5.73539 0.0986045 5.56295C0.166744 5.39051 0.268165 5.23387 0.396816 5.10237C0.525467 4.97086 0.678713 4.86719 0.847411 4.79754C1.01611 4.72789 1.1968 4.69369 1.37872 4.69697C1.56063 4.70025 1.74003 4.74095 1.90622 4.81664C2.07241 4.89233 2.22198 5.00146 2.34601 5.13752L6.12866 9.00219L12.4005 0.831546C12.4118 0.81729 12.4239 0.803725 12.4367 0.790923V0.790923ZM10.7748 10.2818L12.4367 11.9806C12.5654 12.1119 12.7188 12.2155 12.8875 12.2849C13.0563 12.3544 13.237 12.3885 13.4189 12.385C13.6008 12.3816 13.7802 12.3407 13.9463 12.2649C14.1124 12.1891 14.2619 12.0798 14.3858 11.9436L21.597 2.72972C21.7266 2.59899 21.829 2.44292 21.8982 2.27083C21.9674 2.09873 22.002 1.91414 21.9999 1.72808C21.9978 1.54202 21.959 1.35831 21.8859 1.18791C21.8127 1.01751 21.7068 0.863926 21.5743 0.736322C21.4418 0.608717 21.2855 0.509712 21.1148 0.445219C20.944 0.380726 20.7623 0.352068 20.5805 0.360956C20.3986 0.369844 20.2204 0.416096 20.0565 0.49695C19.8925 0.577804 19.7462 0.691601 19.6262 0.831546L13.3525 9.00219L12.4764 8.1048L10.773 10.2818H10.7748Z" fill="#1889CD"/>
</svg>
