<svg width="99" height="60" viewBox="0 0 99 60" fill="none" xmlns="http://www.w3.org/2000/svg">
<rect width="99" height="12.6883" fill="#FDB82B"/>
<rect y="47.1503" width="99" height="12.6883" fill="#1237C1"/>
<path d="M37.9894 18.1749L37.3001 21.9658H30.9246L27.3406 42.2294H22.4814L26.0655 21.9658H19.6556L20.3448 18.1749H37.9894ZM57.7067 25.6187C57.477 26.9053 56.9601 28.1115 56.156 29.2372C55.3518 30.363 54.2376 31.2705 52.8131 31.9597C51.4117 32.649 49.723 32.9936 47.7472 32.9936H43.7152L42.0954 42.2294H37.2363L41.5096 18.1749H50.3663C52.8246 18.1749 54.6856 18.7263 55.9492 19.8291C57.2128 20.9089 57.8446 22.3563 57.8446 24.1713C57.8446 24.6997 57.7986 25.1822 57.7067 25.6187ZM48.2297 29.2028C49.5392 29.2028 50.5731 28.8811 51.3313 28.2378C52.0894 27.5946 52.5719 26.7215 52.7787 25.6187C52.8246 25.412 52.8476 25.1133 52.8476 24.7227C52.8476 22.9077 51.7218 22.0002 49.4703 22.0002H45.6795L44.4044 29.2028H48.2297ZM73.7798 37.646H64.1649L61.787 42.2294H56.7211L69.6443 18.1405H75.2616L79.6383 42.2294H74.5379L73.7798 37.646ZM73.1595 33.8896L71.4364 23.6889L66.1292 33.8896H73.1595Z" fill="#1237C1"/>
</svg>
